<?xml version="1.0" standalone="no"?>
<!DOCTYPE svg PUBLIC "-//W3C//DTD SVG 20010904//EN"
 "http://www.w3.org/TR/2001/REC-SVG-20010904/DTD/svg10.dtd">
<svg version="1.0" xmlns="http://www.w3.org/2000/svg"
 width="700.000000pt" height="700.000000pt" viewBox="0 0 700.000000 700.000000"
 preserveAspectRatio="xMidYMid meet">
<metadata>
Created by potrace 1.11, written by Peter Selinger 2001-2013
</metadata>
<g transform="translate(0.000000,700.000000) scale(0.100000,-0.100000)"
fill="#000000" stroke="none">
<path d="M1884 6810 c-296 -33 -542 -138 -704 -300 -34 -34 -63 -73 -70 -96
-25 -76 -90 -192 -210 -374 -175 -265 -224 -370 -255 -549 -19 -108 -19 -342
0 -536 8 -82 18 -220 21 -305 3 -88 12 -179 21 -210 61 -224 280 -390 516
-390 95 0 167 21 331 95 78 35 166 70 196 79 104 31 150 -13 135 -127 -12 -85
-17 -92 -82 -110 -91 -24 -117 -27 -339 -37 -135 -6 -230 -15 -269 -26 -61
-16 -273 -123 -355 -177 -115 -77 -212 -210 -245 -333 -21 -77 -21 -229 0
-324 8 -41 20 -97 26 -125 15 -74 12 -333 -5 -555 -9 -107 -16 -244 -16 -303
0 -125 -3 -117 123 -318 104 -166 151 -259 210 -414 25 -66 69 -168 99 -226
78 -151 113 -253 174 -517 66 -284 83 -328 138 -386 74 -76 157 -81 225 -14
55 54 78 113 91 229 15 140 26 177 64 215 26 26 43 33 87 38 29 2 105 10 166
16 351 34 541 154 587 372 8 35 21 90 29 123 9 33 30 139 47 235 36 207 59
289 98 351 48 74 58 71 65 -24 7 -84 36 -161 69 -181 44 -27 124 50 153 147 8
28 22 110 31 182 17 129 34 195 53 195 30 0 103 -152 181 -375 73 -212 125
-317 193 -391 66 -73 166 -122 273 -135 187 -23 280 -103 439 -379 43 -74 97
-162 120 -196 30 -43 54 -98 84 -195 48 -152 94 -246 127 -261 32 -15 69 -3
114 38 88 79 178 253 208 397 l17 82 60 12 c33 6 123 16 201 22 241 18 392 86
510 230 71 87 141 138 285 212 150 76 226 132 267 196 37 57 104 260 133 403
26 126 35 379 20 546 -6 71 -28 230 -48 354 l-35 225 17 90 c10 50 20 153 22
230 5 149 0 176 -71 411 -14 45 -29 130 -35 190 -5 60 -19 162 -30 227 -30
176 -50 417 -61 752 -16 482 -52 706 -176 1066 -76 224 -177 389 -330 543
-139 139 -162 154 -270 182 -234 60 -502 20 -756 -113 -148 -78 -272 -179
-412 -338 -77 -86 -99 -123 -121 -200 -23 -79 -16 -240 18 -395 46 -210 79
-476 102 -820 33 -502 47 -673 56 -698 6 -15 44 -94 85 -177 79 -159 114 -276
99 -331 l-7 -29 -16 25 c-9 14 -41 50 -70 82 -98 103 -257 166 -397 155 -121
-10 -172 -31 -330 -141 -70 -49 -141 -59 -191 -27 -45 28 -84 116 -102 231
-36 233 -171 573 -349 882 l-44 77 26 51 c44 87 113 262 135 345 26 97 38 287
21 363 -6 28 -27 92 -46 142 -45 115 -59 186 -80 390 -28 285 -69 406 -169
504 -55 54 -161 105 -348 166 -164 54 -370 78 -524 60z m326 -133 c178 -46
320 -127 433 -246 112 -119 161 -228 177 -390 5 -53 28 -188 51 -301 39 -191
42 -216 43 -375 1 -152 -1 -178 -23 -247 -34 -112 -49 -123 -171 -125 -55 0
-104 -4 -109 -8 -19 -11 -12 -32 24 -80 128 -167 275 -493 413 -915 193 -587
187 -567 186 -665 -1 -113 -30 -193 -140 -380 -42 -71 -91 -159 -108 -195
l-31 -65 -6 -335 c-4 -275 -9 -348 -24 -410 l-18 -75 -14 50 c-20 65 -48 104
-91 122 -77 32 -130 -10 -208 -169 -38 -78 -60 -140 -79 -225 -73 -323 -101
-413 -177 -585 l-30 -67 -152 -50 c-165 -54 -311 -85 -451 -96 -167 -13 -185
-43 -196 -314 -9 -213 -17 -243 -63 -239 -26 3 -35 11 -54 51 -33 69 -67 209
-96 392 -49 305 -77 394 -149 473 -55 61 -97 144 -122 243 -58 228 -118 354
-265 549 -16 22 -17 32 -8 85 16 94 11 711 -7 850 -20 152 -19 345 1 443 23
109 58 175 127 237 162 144 300 183 598 170 236 -10 378 18 459 91 86 78 108
219 52 337 -53 113 -132 171 -232 171 -66 -1 -102 -18 -175 -84 -97 -88 -211
-130 -351 -130 -139 1 -244 40 -315 118 -67 72 -81 115 -90 287 -4 82 -20 245
-34 360 -22 173 -26 236 -22 355 8 227 50 342 242 660 79 130 147 260 198 375
61 141 248 284 441 340 180 52 392 57 566 12z m3045 -208 c216 -95 418 -335
534 -634 32 -82 48 -152 90 -390 67 -383 75 -457 111 -945 46 -629 68 -815
127 -1088 25 -116 26 -128 14 -200 -8 -42 -16 -156 -18 -252 -4 -142 -1 -208
17 -350 18 -146 21 -202 15 -340 -13 -341 -49 -550 -132 -776 -26 -71 -27 -71
-73 -82 -159 -37 -285 -120 -496 -325 l-155 -150 -172 -7 c-130 -6 -192 -13
-255 -30 -167 -45 -189 -81 -252 -404 -10 -55 -25 -106 -33 -113 -15 -16 -18
-10 -193 427 -43 107 -101 240 -129 295 -77 153 -126 181 -412 241 -88 18
-184 42 -213 53 -111 42 -162 108 -185 242 -22 122 -38 170 -121 367 -88 206
-115 298 -115 402 -2 138 75 497 108 508 17 5 27 -38 83 -374 73 -427 114
-574 206 -726 32 -52 41 -59 107 -86 92 -38 166 -62 347 -111 237 -65 350
-110 475 -191 71 -46 137 -60 276 -60 185 0 378 51 605 159 231 111 300 155
355 230 106 143 182 332 220 547 17 93 21 161 22 309 0 177 -1 196 -26 280
-87 294 -103 562 -51 820 13 62 15 114 11 235 -5 140 -10 177 -56 378 -64 281
-75 354 -101 692 -40 539 -83 741 -203 973 -125 241 -322 324 -647 272 -132
-21 -427 -102 -475 -130 -136 -79 -176 -208 -154 -500 6 -82 8 -199 5 -260 -8
-142 9 -249 72 -470 28 -93 55 -196 61 -227 15 -70 17 -189 7 -289 -12 -102 2
-172 79 -409 80 -249 93 -325 75 -458 -14 -111 -11 -141 39 -382 33 -156 38
-217 20 -271 -15 -44 -55 -88 -98 -106 -33 -14 -35 -13 -67 18 -46 45 -87 127
-140 281 -57 165 -85 219 -150 283 -57 57 -184 117 -287 136 -180 32 -418 -84
-557 -271 l-33 -45 7 62 c18 187 181 318 471 378 123 25 211 23 270 -8 54 -27
141 -113 223 -218 84 -107 168 -176 190 -154 4 4 7 77 6 163 -2 237 -41 424
-140 664 -37 90 -44 118 -44 173 0 101 -27 324 -71 599 -25 154 -38 262 -34
283 12 68 5 277 -16 436 -12 89 -21 218 -22 287 l0 126 43 83 c111 212 356
376 670 445 173 38 252 35 365 -15z"/>
<path d="M1905 6593 c-204 -20 -363 -83 -508 -200 -85 -69 -144 -147 -214
-287 -30 -60 -94 -172 -143 -250 -167 -267 -215 -402 -193 -550 6 -47 22 -97
41 -133 56 -108 63 -149 72 -403 9 -264 19 -312 88 -412 44 -63 95 -87 187
-87 86 -1 119 10 320 111 149 74 190 90 240 95 111 10 180 -26 262 -135 76
-101 115 -247 95 -359 -24 -139 -97 -227 -244 -298 -120 -58 -179 -66 -436
-63 -278 4 -348 -15 -470 -124 -80 -72 -109 -113 -132 -187 -26 -81 -26 -176
0 -356 24 -171 25 -291 4 -404 -38 -203 11 -369 187 -637 75 -113 81 -128 104
-226 56 -251 168 -428 312 -496 53 -25 70 -27 201 -30 185 -4 265 8 370 59 99
48 183 126 235 220 45 82 65 152 76 267 11 118 48 197 163 346 158 203 178
231 214 299 23 44 43 103 55 163 21 103 51 189 129 369 77 179 108 261 131
348 19 76 19 83 4 195 -60 434 -205 880 -401 1235 -140 253 -200 306 -515 452
-260 120 -339 174 -339 232 0 63 92 120 211 130 138 12 224 -32 278 -141 40
-80 133 -171 217 -212 162 -79 304 -12 330 156 15 95 -28 361 -121 745 -42
174 -49 196 -91 257 -61 90 -189 210 -264 248 -33 17 -86 37 -118 44 -54 14
-272 26 -337 19z"/>
</g>
</svg>
