<?xml version="1.0" encoding="UTF-8"?>
<svg width="260" height="260" version="1.1" viewBox="0 0 260 260" xmlns="http://www.w3.org/2000/svg" xmlns:cc="http://creativecommons.org/ns#" xmlns:dc="http://purl.org/dc/elements/1.1/" xmlns:osb="http://www.openswatchbook.org/uri/2009/osb" xmlns:rdf="http://www.w3.org/1999/02/22-rdf-syntax-ns#">
 <metadata>
  <rdf:RDF>
   <cc:Work rdf:about="">
    <dc:format>image/svg+xml</dc:format>
    <dc:type rdf:resource="http://purl.org/dc/dcmitype/StillImage"/>
    <dc:title/>
   </cc:Work>
  </rdf:RDF>
 </metadata>
 <g>
  <path transform="matrix(1.33 0 0 1.33 -37.3 -43)" d="m84.7 37.5c-9.12 0.19-19.3 2.95-25.2 10.3-2.69 8.38-9.77 14.4-12.4 22.7-3.23 9.91-0.0442 20.1-0.285 30.2 0.24 9.3 9.98 16 18.8 13.4 5.79-1.42 17.5-10.8 14.1 1.83-7.14 3.32-16.2-0.452-23.2 4.37-8.39 3.61-15.8 9.97-11.7 23.8 1.62 9.48-1.07 18.2-0.314 28.3 3.48 6.53 6.63 8.78 10.3 20.3 5.73 9.73 5.51 14.6 7.63 22.2 1.18 8.2 8.19 10.9 11 2.71 0.798-4.97-0.118-10.3 5.65-9.87 9.51-0.793 19.2-2.13 20.2-12.4 2.26-5.92 1.81-17.7 6.47-20-0.194 3.89 1.21 11.9 5.47 5.22 2.54-3.84 0.607-19.4 5.73-8.4 3.76 7.81 4.13 19.1 14.6 21.2 10.1-0.0259 12.5 11.4 17.7 17.8 1.59 5.08 3.37 11.9 5.61 11.3 3.54-0.803 8.21-9.46 8.21-14.6 7.39-2.19 13 1.01 21.2-6.57 4.86-8.25 15.7-6.43 17.6-16.3 4.98-12.6 2.47-25.5 0.21-38.8 4.06-16.1-2.27-17.5-1.71-26.8-2.42-10.4-2.51-21.2-2.79-31.8-0.451-8.01-1.83-15.9-4.61-23.5-2.12-7.96-7.56-14.8-14-19.8-12.8-5.01-27.7 1.97-35.8 12.2-6.39 6.5-1.93 15-1.18 22.6 1.85 11.7 1.81 23.5 2.99 35.3 1.75 4.99 6.75 10.9 5.1 16-3.93-7.75-14.2-10.2-21.1-4.87-7.64 6.6-9.87-0.901-10.4-7.67-2.33-8.41-6.08-16.3-10.5-23.7 3.69-7.65 7.81-16.7 3.71-25.4-3.86-8.25 0.0118-19.9-8.19-26-5.98-2.74-12.3-5.29-19-5.15z" fill="#000100"/>
 </g>
 <g>
  <path transform="matrix(1.33 0 0 1.33 -37.3 -43)" d="m82.5 40.4c11.4-0.466 24.7 7.38 24.5 20 1.31 8.99 4.91 18 1.2 26.6-1.34 3.85-11.2-1.48-5.77 4.6 7.56 11.7 11 25.4 15.3 38.5 3.67 8.81-4.36 15.5-6.97 22.9-0.985 7.79 1.15 16.2-1.79 23.6 0.127-5.87-5.12-8.5-7.73-2.1-4.62 7.79-1.86 11.6-8.65 25.7-4.72 1.65-10.7 4.11-18.6 4.19-7.35 0.976-0.482 18.5-6.69 15.1-3.78-7.56-2.67-16.6-6.16-24.1-6.89-5.89-2.37-12-12.5-23.9 1.26-7.93 0.411-14.5 0.426-23-1.19-7.65-2.1-18.6 3.98-22.3 9.15-8.29 20-1 28.3-6.22 7.82-6.35-2.09-20.6-9.55-11.7-6.39 5.43-19.8 4.56-20.9-5.39 0.294-9.4-3.22-18.8-1.18-28.1 2.1-8.77 8.79-15.3 11.7-23.7 3.83-7.45 13.1-10.8 21.1-10.8zm87.5 5.26c11 1.46 17.8 12.5 21 22.2 1.36 8.89 3.5 17.6 3.87 26.6 1.19 13.7 1.4 28 4.9 41.3-1.93 11.6-0.869 14.8 0.0593 23 0.173 9.93-0.577 20.4-4.56 29.5-8.37 1.21-13.5 8.01-19.4 13.5-4.03 0.366-9.01-0.438-14.4 1.84-5.02 2.1-3.55 12.6-5.95 14.2-1.27-1.97-7.78-20.6-10.4-23.7-6.61-5.98-19.1-1.47-20.9-11.3-0.725-9.13-8.67-16.6-6.4-26 0.486-3.19 2.8-17.4 4.11-7 2.06 9.6 2.13 20.3 7.84 28.6 8.3 4.28 18.5 4.14 26.3 10.3 11.1 3 22.2-2.77 31.6-8.21 7.28-8.39 9.02-20.5 8.04-31.3-2.49-7.9-3.84-16.2-2.18-24.4 2.26-8.98-1.57-17.5-2.88-26.2-1.94-13.7-0.385-28.8-8.25-40.8-6.39-8.33-18-4.82-26.5-2.31-10.8 2.22-6.7 14-7.06 21.6-1.43 9 4.5 16.9 4.07 25.7-2.44 9.59 5.88 17.4 3.96 27.2-1.57 6.76 6.73 19-2.23 21.2-6.35-5.03-3.64-16.2-13-19.1-7.38-4.19-16.3 1.04-20.3 7.58-1.28-9.37 10.2-12.8 17.6-13.2 7.01-0.379 10.4 11.1 14.7 11.3 0.8-8.71-1.06-17.6-4.92-25.4-0.197-8.85-1.84-17.4-3.27-26.2 1.71-8.46-1.95-16.8-0.703-25 3.89-9.95 15.5-14.7 25.4-15.4z" fill="#ff0"/>
 </g>
 <g>
  <path transform="matrix(1.33 0 0 1.33 -37.3 -43)" d="m85.8 43.9c-10.2-1.09-21 4.02-24.8 14-3.68 7.88-12.2 15.4-8.37 24.9 5.15 7.38-1.03 17 5.86 24.6 9.01 4.82 15.5-8 24-4.07 7.36 5.04 8.68 17.6-0.602 21.5-8.08 5.04-19-1.95-26.1 5.74-8.06 6.44-0.854 16.8-3.08 25.2-2.11 8.61 2.77 15.4 7.39 21.9 1.24 8.55 5.65 19.6 16.4 17.5 9.94 1.05 17.7-6.68 17.3-16.5 1.82-7.44 9.16-11.9 11.7-19.1 1.01-8.72 6.7-15.9 8.13-24.3-1.58-14.7-6.22-29.3-14.1-41.9-4.61-7.02-16-8.77-20.9-13.4-3.49-4.96 11.7-8.73 13.7-0.607 3.68 6.08 13.5 10.2 15 0.194-0.535-8.56-2.76-16.4-4.9-25.3-3.74-6-9.3-11.3-16.7-10.2z" fill="#000100"/>
 </g>
 <g>
  <path transform="matrix(1.33 0 0 1.33 -37.3 -43)" d="m86.9 47.1c10.9-1.96 14.2 14.2 15.2 18.1 2.32 8.39 3.68 22.9-4.71 14.9-5.18-6.05-13.2-14.6-20.3-5.36-7.38 10.2 8.38 9.55 13.6 14.5 8.22 5.36 11.3 15.7 14 24.6 1.52 8.19 8.24 16.2 4.55 24.7-5.2 6.28-5.84 14.4-7.75 22-4.15 6.77-10.8 12.2-11.5 20.7-0.858 10.3-12.2 13.2-20.2 9.25-6.61-5.21-4.66-16.1-12.1-21.3-5.25-6.94-0.339-16.5-0.753-24.5-2.5-12 10.5-12.5 18.9-13.3 7.82-2.15 18.3-7.76 17-17.4-1.1-8.22-7.91-19.1-17.6-15.5-4.87 3.6-18.1 11.2-16.9-0.725 1.16-19.5-6.76-16.6-2.21-25.2 4.67-6.77 7.3-15.3 13.6-20.7 5.2-3.03 11.2-4.52 17.2-4.7zm84.7 7.52c9.23 1.73 11.9 12.6 13.9 20.5 2.87 12.7 0.06 26.3 5.3 38.6 0.0746 10.2-3.44 20.9 0.678 30.8 2.17 9.04-1.37 18.2-3.27 27-2.02 8.37-11.2 10.7-17.9 14-9.64 4.5-17.9-2.2-25.9-6.66-8.55 1.24-13.7-5.63-16.9-12.7-3.19-8.46-3.62-18.3-0.662-26.9 5.74-8.76 21.1-4.22 20.6 6.45 0.0769 10.4 16.3 9.59 14-0.531-3.8-8.82 3.01-18.5-2.78-26.9-4.56-7.66-2.03-16.5-3.85-24.4-5.21-9.58-3.04-20.7-4.43-31.1 2.67-7.88 14.3-6.66 21-8.07z" fill="#0f0"/>
 </g>
</svg>
